<?xml version="1.0" encoding="UTF-8" standalone="no"?>
<svg
   xmlns:dc="http://purl.org/dc/elements/1.1/"
   xmlns:cc="http://creativecommons.org/ns#"
   xmlns:rdf="http://www.w3.org/1999/02/22-rdf-syntax-ns#"
   xmlns:svg="http://www.w3.org/2000/svg"
   xmlns="http://www.w3.org/2000/svg"
   viewBox="0 0 2560 1440"
   height="1440"
   width="2560"
   xml:space="preserve"
   id="svg2"
   version="1.1"><metadata
     id="metadata8"><rdf:RDF><cc:Work
         rdf:about=""><dc:format>image/svg+xml</dc:format><dc:type
           rdf:resource="http://purl.org/dc/dcmitype/StillImage" /></cc:Work></rdf:RDF></metadata><defs
     id="defs6"><clipPath
       id="clipPath18"
       clipPathUnits="userSpaceOnUse"><path
         id="path16"
         d="M 0,1080 H 1920 V 0 H 0 Z" /></clipPath></defs><g
     transform="matrix(1.3333333,0,0,-1.3333333,0,1440)"
     id="g10"><g
       id="g12"><g
         clip-path="url(#clipPath18)"
         id="g14"><g
           transform="translate(989.4629,382.3408)"
           id="g20"><path
             id="path22"
             style="fill:#2d2d2d;fill-opacity:1;fill-rule:nonzero;stroke:none"
             d="m 0,0 v -46.943 c 0,-15.361 -7.488,-23.04 -22.464,-23.04 -7.233,0 -12.849,1.886 -16.848,5.664 -4.001,3.775 -6,9.439 -6,16.992 v 4.512 h 13.824 v -2.113 c 0,-1.727 0.015,-3.023 0.048,-3.887 0.031,-0.865 0.192,-1.985 0.48,-3.361 0.288,-1.377 0.72,-2.399 1.296,-3.072 0.576,-0.672 1.423,-1.28 2.544,-1.823 1.119,-0.545 2.511,-0.817 4.176,-0.817 1.791,0 3.247,0.288 4.368,0.865 1.119,0.576 1.935,1.455 2.448,2.639 0.511,1.184 0.831,2.353 0.96,3.504 0.127,1.152 0.192,2.624 0.192,4.416 l 0,46.464 z" /></g><g
           transform="translate(1046.6787,363.5254)"
           id="g24"><path
             id="path26"
             style="fill:#2d2d2d;fill-opacity:1;fill-rule:nonzero;stroke:none"
             d="m 0,0 v -49.536 h -12.96 v 7.008 c -3.84,-5.632 -9.216,-8.449 -16.128,-8.449 -5.44,0 -9.681,1.489 -12.72,4.465 -3.041,2.976 -4.56,7.375 -4.56,13.199 V 0 h 13.728 v -28.32 c 0,-1.857 0.079,-3.345 0.24,-4.464 0.159,-1.12 0.495,-2.256 1.008,-3.408 0.512,-1.152 1.359,-2.001 2.544,-2.544 1.183,-0.544 2.703,-0.816 4.56,-0.816 7.167,0 10.752,4.671 10.752,14.016 V 0 Z" /></g><g
           transform="translate(1103.7974,313.9893)"
           id="g28"><path
             id="path30"
             style="fill:#2d2d2d;fill-opacity:1;fill-rule:nonzero;stroke:none"
             d="m 0,0 h -13.824 v 28.896 c 0,3.519 -0.576,6.192 -1.728,8.016 -1.152,1.824 -3.393,2.736 -6.72,2.736 -7.168,0 -10.752,-4.353 -10.752,-13.056 V 0 H -46.56 v 49.536 h 12.96 v -6.912 c 4.095,5.504 9.567,8.256 16.416,8.256 5.311,0 9.504,-1.536 12.576,-4.608 C -1.536,43.2 0,38.815 0,33.12 Z" /></g><path
           id="path32"
           style="fill:#2d2d2d;fill-opacity:1;fill-rule:nonzero;stroke:none"
           d="m 1128.084,313.989 h -13.632 v 49.536 h 13.632 z m 0,56.832 h -13.632 v 11.52 h 13.632 z" /><g
           transform="translate(1162.8359,354.5977)"
           id="g34"><path
             id="path36"
             style="fill:#2d2d2d;fill-opacity:1;fill-rule:nonzero;stroke:none"
             d="m 0,0 c -3.648,0 -6.528,-1.409 -8.64,-4.225 -2.112,-2.816 -3.168,-6.688 -3.168,-11.616 0,-5.055 1.056,-8.992 3.168,-11.807 2.112,-2.818 5.055,-4.224 8.832,-4.224 3.775,0 6.704,1.423 8.784,4.271 2.079,2.848 3.12,6.8 3.12,11.857 0,4.927 -1.073,8.784 -3.216,11.567 C 6.735,-1.393 3.775,0 0,0 m 0.384,10.367 c 7.616,0 13.743,-2.399 18.384,-7.199 4.639,-4.801 6.96,-11.137 6.96,-19.009 0,-7.936 -2.321,-14.304 -6.96,-19.103 -4.641,-4.8 -10.833,-7.201 -18.576,-7.201 -7.745,0 -13.953,2.401 -18.624,7.201 -4.672,4.799 -7.008,11.167 -7.008,19.103 0,7.872 2.367,14.208 7.104,19.009 4.735,4.8 10.976,7.199 18.72,7.199" /></g><g
           transform="translate(1229.6514,364.3896)"
           id="g38"><path
             id="path40"
             style="fill:#2d2d2d;fill-opacity:1;fill-rule:nonzero;stroke:none"
             d="m 0,0 v -12.576 c -1.92,0.384 -3.681,0.576 -5.28,0.576 -4.481,0 -7.776,-1.426 -9.888,-4.272 -2.112,-2.849 -3.168,-6.672 -3.168,-11.472 V -50.4 h -13.632 v 49.536 h 12.96 v -9.12 c 3.264,6.847 8.607,10.272 16.032,10.272 C -2.337,0.288 -1.344,0.191 0,0" /></g><g
           transform="translate(1304.0503,319.3652)"
           id="g42"><path
             id="path44"
             style="fill:#2d2d2d;fill-opacity:1;fill-rule:nonzero;stroke:none"
             d="m 0,0 v -5.376 h -44.256 c 0.128,1.791 0.336,3.471 0.624,5.04 0.288,1.567 0.799,3.056 1.536,4.464 0.735,1.407 1.376,2.624 1.92,3.648 0.543,1.023 1.471,2.175 2.784,3.456 1.311,1.28 2.288,2.24 2.928,2.88 0.639,0.639 1.839,1.584 3.6,2.832 1.76,1.248 2.96,2.079 3.6,2.496 0.639,0.415 2.016,1.328 4.128,2.736 2.304,1.536 3.903,2.607 4.8,3.216 0.896,0.608 2.304,1.695 4.224,3.264 1.92,1.568 3.296,2.959 4.128,4.176 0.831,1.215 1.632,2.736 2.4,4.56 0.768,1.824 1.152,3.727 1.152,5.712 0,4.16 -1.36,7.503 -4.08,10.032 -2.721,2.527 -6.321,3.792 -10.8,3.792 -5.44,0 -9.36,-1.697 -11.76,-5.088 -2.4,-3.393 -3.6,-7.84 -3.6,-13.344 h -5.952 v 0.864 c 0,7.104 1.92,12.687 5.76,16.752 3.84,4.064 9.12,6.096 15.84,6.096 6.272,0 11.295,-1.728 15.072,-5.184 3.776,-3.456 5.664,-8.064 5.664,-13.824 0,-1.857 -0.273,-3.665 -0.816,-5.424 -0.544,-1.761 -1.104,-3.281 -1.68,-4.56 -0.576,-1.281 -1.6,-2.704 -3.072,-4.272 -1.473,-1.569 -2.608,-2.753 -3.408,-3.552 -0.801,-0.801 -2.224,-1.92 -4.272,-3.36 -2.049,-1.44 -3.424,-2.385 -4.128,-2.832 -0.705,-0.448 -2.176,-1.408 -4.416,-2.88 -2.496,-1.6 -4.209,-2.721 -5.136,-3.36 -0.929,-0.641 -2.337,-1.744 -4.224,-3.312 -1.889,-1.569 -3.28,-3.12 -4.176,-4.656 -0.897,-1.536 -1.505,-3.232 -1.824,-5.088 0.255,0 0.56,0.015 0.912,0.048 0.351,0.031 0.591,0.048 0.72,0.048 z" /></g><g
           transform="translate(1336.4023,376.1016)"
           id="g46"><path
             id="path48"
             style="fill:#2d2d2d;fill-opacity:1;fill-rule:nonzero;stroke:none"
             d="m 0,0 c -3.009,0 -5.616,-0.688 -7.824,-2.064 -2.208,-1.377 -3.888,-3.057 -5.04,-5.04 -1.152,-1.985 -2.08,-4.45 -2.784,-7.392 -0.705,-2.944 -1.137,-5.568 -1.296,-7.872 -0.16,-2.304 -0.24,-4.897 -0.24,-7.777 0,-18.879 5.727,-28.319 17.184,-28.319 11.391,0 17.088,9.728 17.088,29.184 C 17.088,-9.761 11.391,0 0,0 m -0.096,5.376 c 15.679,0 23.52,-11.616 23.52,-34.849 0,-22.784 -7.809,-34.175 -23.424,-34.175 -15.617,0 -23.424,11.232 -23.424,33.696 0,23.552 7.776,35.328 23.328,35.328" /></g><g
           transform="translate(1396.2104,380.9971)"
           id="g50"><path
             id="path52"
             style="fill:#2d2d2d;fill-opacity:1;fill-rule:nonzero;stroke:none"
             d="m 0,0 v -67.008 h -6.336 v 49.92 h -17.376 v 4.609 c 2.431,0.062 4.191,0.143 5.28,0.239 1.087,0.096 2.432,0.271 4.032,0.528 1.599,0.255 2.767,0.639 3.504,1.152 0.735,0.512 1.551,1.215 2.448,2.112 0.895,0.895 1.599,2.031 2.112,3.408 0.511,1.376 0.991,3.056 1.44,5.04 z" /></g><g
           transform="translate(1441.9063,376.4854)"
           id="g54"><path
             id="path56"
             style="fill:#2d2d2d;fill-opacity:1;fill-rule:nonzero;stroke:none"
             d="m 0,0 c -4.608,0 -8.433,-1.648 -11.472,-4.944 -3.04,-3.297 -4.56,-7.44 -4.56,-12.432 0,-5.057 1.503,-9.168 4.512,-12.336 3.008,-3.168 6.879,-4.752 11.616,-4.752 4.8,0 8.719,1.584 11.76,4.752 3.039,3.168 4.56,7.248 4.56,12.24 0,5.055 -1.552,9.231 -4.656,12.528 C 8.655,-1.648 4.735,0 0,0 m -20.448,-46.464 h 5.856 c 0.576,-3.777 2.175,-6.768 4.8,-8.976 2.624,-2.208 5.888,-3.312 9.792,-3.312 10.56,0 16.416,8.16 17.568,24.48 0.128,1.471 0.192,3.135 0.192,4.992 v 1.824 C 14.367,-35.712 8.223,-39.84 -0.672,-39.84 c -6.273,0 -11.424,2.079 -15.456,6.24 -4.032,4.16 -6.048,9.471 -6.048,15.936 0,6.655 2.112,12.143 6.336,16.464 4.224,4.32 9.567,6.48 16.032,6.48 8.127,0 14.304,-3.201 18.528,-9.6 3.327,-5.121 4.992,-12.897 4.992,-23.328 0,-6.913 -0.64,-12.768 -1.92,-17.568 -1.601,-6.016 -4.305,-10.641 -8.112,-13.872 -3.808,-3.232 -8.4,-4.849 -13.776,-4.849 -5.697,0 -10.401,1.584 -14.112,4.752 -3.712,3.169 -5.793,7.408 -6.24,12.721" /></g><path
           id="path58"
           style="fill:#2d2d2d;fill-opacity:1;fill-rule:nonzero;stroke:none"
           d="M 204.75,692.508 H 261.3 V 489.641 h -56.55 z" /><g
           transform="translate(294.9131,646.2402)"
           id="g60"><path
             id="path62"
             style="fill:#2d2d2d;fill-opacity:1;fill-rule:nonzero;stroke:none"
             d="m 0,0 h 54.968 v -22.146 c 10.282,13.05 24.518,25.705 47.059,25.705 33.218,0 53.386,-22.145 53.386,-57.736 v -102.818 h -54.968 v 85.022 c 0,17.005 -9.095,26.496 -22.145,26.496 -13.446,0 -23.332,-9.095 -23.332,-26.496 v -85.022 H 0 Z" /></g><g
           transform="translate(478.7988,646.2402)"
           id="g64"><path
             id="path66"
             style="fill:#2d2d2d;fill-opacity:1;fill-rule:nonzero;stroke:none"
             d="m 0,0 h 54.968 v -22.146 c 10.282,13.05 24.517,25.705 47.059,25.705 33.218,0 53.386,-22.145 53.386,-57.736 v -102.818 h -54.968 v 85.022 c 0,17.005 -9.096,26.496 -22.146,26.496 -13.445,0 -23.331,-9.095 -23.331,-26.496 v -85.022 H 0 C 0,-156.995 0,0 0,0" /></g><g
           transform="translate(776.1792,567.5449)"
           id="g68"><path
             id="path70"
             style="fill:#2d2d2d;fill-opacity:1;fill-rule:nonzero;stroke:none"
             d="m 0,0 c 0,18.981 -13.841,35.195 -33.218,35.195 -20.168,0 -32.823,-15.818 -32.823,-35.195 0,-18.981 13.841,-35.195 33.218,-35.195 C -12.654,-35.195 0,-19.377 0,0 m -119.822,0 c 0,44.687 36.381,82.254 86.999,82.254 50.222,0 86.605,-36.776 86.605,-82.254 0,-44.686 -36.382,-82.254 -87,-82.254 -50.222,0.396 -86.604,37.173 -86.604,82.254" /></g><g
           transform="translate(1589.084,639.418)"
           id="g72"><path
             id="path74"
             style="fill:#ff5b00;fill-opacity:1;fill-rule:nonzero;stroke:none"
             d="m 0,0 h -98.581 v -32.002 h 89.385 v -43.405 h -89.385 v -67.315 h -52.232 l -0.368,188.701 151.181,0 z m -174.355,0 h -56.647 v -143.089 h -52.233 V 0 h -56.647 v 45.979 h 165.527 z m -260.43,-147.136 c -54.439,0.368 -97.844,41.567 -97.844,98.581 0,55.176 42.301,98.213 99.684,98.213 38.623,0 62.532,-16.553 79.453,-40.095 l -38.255,-29.794 c -10.668,13.61 -23.542,21.703 -41.566,21.703 -26.484,0 -44.876,-22.439 -44.876,-50.395 0,-28.323 18.76,-50.393 44.876,-50.393 19.863,0 31.266,9.196 42.669,22.805 l 39.358,-27.956 c -17.656,-24.644 -41.933,-42.669 -83.499,-42.669 m -112.118,259.865 -90.404,-318.586 h 673.07 l 90.403,318.586 z" /></g><g
           transform="translate(856.5537,292.8496)"
           id="g76"><path
             id="path78"
             style="fill:#2d2d2d;fill-opacity:1;fill-rule:nonzero;stroke:none"
             d="M 0,0 130.333,459.298 H 80.563 L -49.712,0 Z" /></g></g></g></g></svg>